<svg xmlns="http://www.w3.org/2000/svg" xmlns:xlink="http://www.w3.org/1999/xlink"><defs>
        <linearGradient id="a" x1="148" y1="0" x2="32.829" y2="0" gradientUnits="userSpaceOnUse">
            <stop stop-color="#1C1B1B"/>
            <stop offset="1" stop-color="#fff" stop-opacity="0"/>
        </linearGradient>
        <linearGradient id="b" x1="148" y1="91" x2="32.829" y2="91" gradientUnits="userSpaceOnUse">
            <stop stop-color="#1C1B1B"/>
            <stop offset="1" stop-color="#fff" stop-opacity="0"/>
        </linearGradient>
    
        <linearGradient id="a" x1="320" y1="92" x2="187.429" y2="92" gradientUnits="userSpaceOnUse">
            <stop stop-color="#1C1B1B"/>
            <stop offset="1" stop-color="#fff" stop-opacity="0"/>
        </linearGradient>
        <linearGradient id="b" x1="320" y1="1" x2="187.429" y2="1" gradientUnits="userSpaceOnUse">
            <stop stop-color="#1C1B1B"/>
            <stop offset="1" stop-color="#fff" stop-opacity="0"/>
        </linearGradient>
    
        <linearGradient id="a" x1="618" y1="0" x2="105.943" y2="0" gradientUnits="userSpaceOnUse">
            <stop stop-color="#1C1B1B"/>
            <stop offset="1" stop-color="#fff" stop-opacity="0"/>
        </linearGradient>
        <linearGradient id="b" x1="716" y1="0" x2="1334" y2="2.001" gradientUnits="userSpaceOnUse">
            <stop stop-color="#1C1B1B"/>
            <stop offset="1" stop-color="#fff" stop-opacity="0"/>
        </linearGradient>
    </defs><symbol id="arrow-right" viewBox="0 0 92 62"><g fill="none">
    <path d="M40 52.213a29.836 29.836 0 0 0 15.297 8.21 29.76 29.76 0 0 0 17.26-1.707 29.902 29.902 0 0 0 13.408-11.049A30.089 30.089 0 0 0 91 31a30.089 30.089 0 0 0-5.035-16.667 29.902 29.902 0 0 0-13.407-11.05 29.76 29.76 0 0 0-17.262-1.707A29.837 29.837 0 0 0 40 9.786" stroke="currentColor" stroke-width="2" stroke-linecap="round"/>
    <path d="M5 31h60M58 24l7 7-7 7" stroke="currentColor" stroke-width="2" stroke-linecap="round" stroke-linejoin="round"/>
</g></symbol><symbol id="evening1"><g fill="none">
    <path d="M1.877 33.33c.03-.09 2.88-5.46 4.08-10.98V39h2.85V18.09h-2.85c0 6.42-4.47 14.91-4.53 15l.45.24Zm9.486-4.74c0 8.1 3.9 10.89 9.06 10.89 4.92 0 8.7-2.73 8.7-7.98s-3.72-7.95-8.64-7.95c-3.42 0-5.64 2.46-6.12 5.7 0-7.08 2.1-11.1 6.06-11.1 2.82 0 4.14 1.74 4.59 4.8l3.03-.75c-1.5-3.15-4.05-4.56-7.62-4.56-4.74.03-9.06 3.45-9.06 10.95Zm9.12-4.53c3.18 0 5.7 2.25 5.7 7.44 0 5.13-2.67 7.47-5.76 7.47-3.3 0-4.62-1.38-5.55-5.04-.87-4.11.57-9.87 5.61-9.87Zm17.463-6.78h-.54l-7.23 22.95h.54l7.23-22.95Zm1.285 16.05c.03-.09 2.88-5.46 4.08-10.98V39h2.85V18.09h-2.85c0 6.42-4.47 14.91-4.53 15l.45.24Zm9.785-9.15 3.12.42c0-2.85.45-6.51 4.26-6.51 2.46 0 4.53 1.95 4.53 6.36 0 4.29-1.86 5.28-5.43 6.51-3.57 1.23-6.36 2.22-6.36 8.04h15.48v-2.85h-14.67c.78-3 2.94-3.75 5.7-4.71 3.51-1.2 8.22-2.52 8.22-6.99 0-4.47-3.3-6.75-7.47-6.75-3.66 0-7.38 1.86-7.38 6.48Zm24.73-6.9h-.54l-7.23 22.95h.54l7.23-22.95Zm1.286 6.9 3.12.42c0-2.85.45-6.51 4.26-6.51 2.46 0 4.53 1.95 4.53 6.36 0 4.29-1.86 5.28-5.43 6.51-3.57 1.23-6.36 2.22-6.36 8.04h15.48v-2.85h-14.67c.78-3 2.94-3.75 5.7-4.71 3.51-1.2 8.22-2.52 8.22-6.99 0-4.47-3.3-6.75-7.47-6.75-3.66 0-7.38 1.86-7.38 6.48Zm18.01 4.38c0 7.65 4.68 10.89 9.63 10.92 4.98-.03 9.66-3.27 9.66-10.92 0-7.5-4.68-10.89-9.66-10.92-4.95.03-9.63 3.42-9.63 10.92Zm9.63-10.5c3.6 0 6.75 1.95 6.75 10.5 0 8.61-3.15 10.5-6.75 10.5-3.57 0-6.69-1.83-6.69-10.5 0-8.55 3.12-10.5 6.69-10.5Zm12.057 6.12 3.12.42c0-2.85.45-6.51 4.26-6.51 2.46 0 4.53 1.95 4.53 6.36 0 4.29-1.86 5.28-5.43 6.51-3.57 1.23-6.36 2.22-6.36 8.04h15.48v-2.85h-14.67c.78-3 2.94-3.75 5.7-4.71 3.51-1.2 8.22-2.52 8.22-6.99 0-4.47-3.3-6.75-7.47-6.75-3.66 0-7.38 1.86-7.38 6.48Zm18.31 0 3.12.42c0-2.85.45-6.51 4.26-6.51 2.46 0 4.53 1.95 4.53 6.36 0 4.29-1.86 5.28-5.43 6.51-3.57 1.23-6.36 2.22-6.36 8.04h15.48v-2.85h-14.67c.78-3 2.94-3.75 5.7-4.71 3.51-1.2 8.22-2.52 8.22-6.99 0-4.47-3.3-6.75-7.47-6.75-3.66 0-7.38 1.86-7.38 6.48ZM5.8 74h2.304v-5.632H9.48c3.472 0 3.552 2.928 3.552 5.632h2.304c0-3.232-.976-5.312-4.416-5.808l3.328-5.344h-.368l-3.296 5.296c-.4-.032-.64-.048-1.056-.048H8.104v-5.248H5.8V74Zm10.57 0h.289l1.568-4.56h4.56L24.563 74h2.384l-4.32-11.152H20.21L16.37 74Zm4-10.8 2.32 5.968h-4.367L20.37 63.2Zm6.487 5.28c0 3.584 3.056 4.528 6.352 4.528h.256V74h2.32v-.992h.24c3.296 0 6.352-.944 6.352-4.528 0-3.584-3.04-4.656-6.32-4.656H35.8v-.976h-2.336v.976h-.272c-3.296 0-6.336 1.072-6.336 4.656Zm2.32-.08c0-2.928 1.552-4.304 3.952-4.304h.336v8.64h-.336c-2.4 0-3.952-1.408-3.952-4.336Zm6.608 4.336v-8.64h.336c2.384 0 3.952 1.376 3.952 4.304 0 2.928-1.568 4.336-3.952 4.336h-.336ZM43.738 74h8.784v-.272H46.01v-5.392h5.087v-.272H46.01V63.12h6.512v-.272h-8.785V74Zm24.12 0h.4l-5.056-4.512 5.056-4.512h-.4l-5.04 4.512L67.858 74Zm-7.968-4.512L64.93 74h.4l-5.04-4.512 5.04-4.512h-.4l-5.04 4.512ZM71.963 74V63.12h6V74h2.272V62.848H69.69V74h2.272Zm13.66-10.88L85.64 74h2.272V63.12h4.592v-.272H81.031v.272h4.592ZM93.3 74h2.272c3.152 0 5.36-2.08 6-5.008V74h2.272V62.848h-2.272v4.064c-.32 6.208-4.512 6.816-6 6.816v-10.88H93.3V74Zm15.789-3.84c2.352.016 3.312-2.96 3.632-4.928V74h2.304V62.848h-2.304c0 2.176-.848 7.04-3.632 7.04-.96 0-1.36-.912-1.36-3.152v-3.888h-2.288v3.856c0 2.288 1.248 3.456 3.648 3.456Zm7.539 3.84h2.304v-5.632h1.376c3.472 0 3.552 2.928 3.552 5.632h2.304c0-3.232-.976-5.312-4.416-5.808l3.328-5.344h-.368l-3.296 5.296c-.4-.032-.64-.048-1.056-.048h-1.424v-5.248h-2.304V74Zm10.571 0h.288l1.568-4.56h4.56l1.776 4.56h2.384l-4.32-11.152h-2.416L127.199 74Zm4-10.8 2.32 5.968h-4.368l2.048-5.968Zm10.619 1.776 5.04 4.512-5.04 4.512h.384l5.056-4.512-5.056-4.512h-.384ZM139.29 74l5.04-4.512-5.04-4.512h-.4l5.04 4.512L138.89 74h.4Z" fill="#1F1E1E"/>
    <path fill="url(#a)" d="M9 0h139v1H9z"/>
    <path fill="url(#b)" d="M9 91h139v1H9z"/>
    
</g></symbol><symbol id="evening2"><g fill="none">
    <path d="m1.35 24.18 3.12.42c0-2.85.45-6.51 4.26-6.51 2.46 0 4.53 1.95 4.53 6.36 0 4.29-1.86 5.28-5.43 6.51-3.57 1.23-6.36 2.22-6.36 8.04h15.48v-2.85H2.28c.78-3 2.94-3.75 5.7-4.71 3.51-1.2 8.22-2.52 8.22-6.99 0-4.47-3.3-6.75-7.47-6.75-3.66 0-7.38 1.86-7.38 6.48Zm18.01 4.38c0 7.65 4.68 10.89 9.63 10.92 4.98-.03 9.66-3.27 9.66-10.92 0-7.5-4.68-10.89-9.66-10.92-4.95.03-9.63 3.42-9.63 10.92Zm9.63-10.5c3.6 0 6.75 1.95 6.75 10.5 0 8.61-3.15 10.5-6.75 10.5-3.57 0-6.69-1.83-6.69-10.5 0-8.55 3.12-10.5 6.69-10.5Zm11.307 19.47c0 1.08.87 1.95 1.95 1.95s1.95-.87 1.95-1.95-.87-1.98-1.95-1.98-1.95.9-1.95 1.98Zm5.519-8.97c0 7.65 4.68 10.89 9.63 10.92 4.98-.03 9.66-3.27 9.66-10.92 0-7.5-4.68-10.89-9.66-10.92-4.95.03-9.63 3.42-9.63 10.92Zm9.63-10.5c3.6 0 6.75 1.95 6.75 10.5 0 8.61-3.15 10.5-6.75 10.5-3.57 0-6.69-1.83-6.69-10.5 0-8.55 3.12-10.5 6.69-10.5Zm11.756 10.5c0 7.65 4.68 10.89 9.63 10.92 4.98-.03 9.66-3.27 9.66-10.92 0-7.5-4.68-10.89-9.66-10.92-4.95.03-9.63 3.42-9.63 10.92Zm9.63-10.5c3.6 0 6.75 1.95 6.75 10.5 0 8.61-3.15 10.5-6.75 10.5-3.57 0-6.69-1.83-6.69-10.5 0-8.55 3.12-10.5 6.69-10.5ZM100.96 28.848V40h2.272v-5.648h6.144V40h2.272V28.848h-2.272v5.232h-6.144v-5.232h-2.272ZM113.089 40h.288l1.568-4.56h4.56l1.776 4.56h2.384l-4.32-11.152h-2.416L113.089 40Zm4-10.8 2.32 5.968h-4.368l2.048-5.968Zm9.656 6.96c2.352.016 3.312-2.96 3.632-4.928V40h2.304V28.848h-2.304c0 2.176-.848 7.04-3.632 7.04-.96 0-1.36-.912-1.36-3.152v-3.888h-2.288v3.856c0 2.288 1.248 3.456 3.648 3.456Zm7.219 3.84h.288l1.568-4.56h4.56l1.776 4.56h2.384l-4.32-11.152h-2.416L133.964 40Zm4-10.8 2.32 5.968h-4.368l2.048-5.968Zm7.297 10.8h.288l3.712-10.768L153.453 40h2.384l-4.32-11.152h-2.416L145.261 40Zm10.487-5.536c0 4.048 3.392 5.792 6.688 5.792 3.312 0 6.688-1.744 6.688-5.792 0-4.032-3.376-5.856-6.688-5.856s-6.688 1.824-6.688 5.856Zm6.688-5.6c2.4 0 4.336 1.408 4.336 5.568 0 4.176-1.936 5.584-4.336 5.584-2.4 0-4.336-1.408-4.336-5.584 0-4.16 1.936-5.568 4.336-5.568ZM.48 74h.288L4.48 63.232 8.672 74h2.384l-4.32-11.152H4.32L.48 74Zm11.851 0h8.784v-.272h-6.512v-5.392h5.088v-.272h-5.088V63.12h6.512v-.272h-8.784V74Zm10.067-11.152V74h2.271v-5.648h6.145V74h2.272V62.848h-2.272v5.232h-6.145v-5.232h-2.271ZM34.846 74h2.272c3.152 0 5.36-2.08 6-5.008V74h2.272V62.848h-2.272v4.064c-.32 6.208-4.512 6.816-6 6.816v-10.88h-2.272V74Zm12.3-11.152V74h2.273v-5.648h6.143V74h2.273V62.848h-2.273v5.232H49.42v-5.232h-2.271ZM59.278 74h.288l1.568-4.56h4.56L67.469 74h2.384l-4.32-11.152h-2.416L59.277 74Zm4-10.8 2.32 5.968h-4.368l2.048-5.968Zm13.937 7.776c.016-.048 1.536-2.944 2.176-5.888V74h2.272V62.848H79.39c0 3.424-2.384 7.952-2.416 8l.24.128Zm5.815-2.544c0 4.08 2.88 5.808 5.52 5.824 2.64-.016 5.52-1.744 5.52-5.824 0-4-2.864-5.808-5.52-5.824-2.64.016-5.52 1.824-5.52 5.824Zm5.52-5.584c1.92 0 3.216 1.04 3.216 5.584 0 4.592-1.296 5.6-3.216 5.6-1.92 0-3.2-.976-3.2-5.6 0-4.544 1.28-5.584 3.2-5.584Zm13.714-1.248h-.272v13.936h.272V61.6Zm7.922 4.496 2.416.224c0-1.52-.128-3.44 1.904-3.44 1.312 0 2.048 1.008 2.048 3.36 0 2.288-.544 2.784-2.528 3.472-1.904.656-3.392 1.184-3.392 4.288h8.256v-2.272h-7.536c.544-.992 1.536-1.344 2.752-1.76 1.808-.624 4.752-1.44 4.752-3.728 0-2.448-1.12-3.616-4.352-3.616-2.528 0-4.32 1.008-4.32 3.472Zm16.313 6.208c1.92 1.888 4.224 1.952 5.424 1.952 3.776 0 6.24-2.496 6.24-5.824 0-3.36-2.464-5.824-6.24-5.824-3.008 0-4.496 1.552-4.704 2.816l.304.064c.448-2.064 2.768-2.608 4.4-2.608 2.624 0 3.76 2 3.84 5.184h-4.112v.272h4.112c0 3.584-1.44 5.616-3.84 5.616-1.152.016-3.392-.016-5.232-1.824l-.192.176Zm15.532-9.184.016 10.88h2.272V63.12h4.592v-.272h-11.472v.272h4.592ZM148.105 74h.288l1.568-4.56h4.56l1.776 4.56h2.384l-4.32-11.152h-2.416L148.105 74Zm4-10.8 2.32 5.968h-4.368l2.048-5.968Zm7.611 10.8h2.336c0-2.72.08-5.68 3.536-5.68h1.392V74h2.256v-5.68h1.04c3.808 0 3.872 2.96 3.872 5.68h2.352c0-4.016-1.936-5.952-6.032-5.952V66.72c0-1.904.224-3.904 2.416-3.904 1.472 0 2.368.896 2.368 2.08a2.069 2.069 0 0 1-2.064 2.064v.272c1.28 0 2.32-1.056 2.32-2.336 0-1.328-.992-2.336-2.64-2.336-2.464 0-2.656 2.256-2.656 4.368v1.12h-.976v-5.2h-2.256v5.2h-.976v-1.136c0-2.112-.192-4.368-2.656-4.368-1.648 0-2.656 1.008-2.656 2.336a2.339 2.339 0 0 0 2.336 2.336v-.256c-1.136 0-2.064-.944-2.064-2.08 0-1.184.88-2.08 2.352-2.08 2.208 0 2.432 2 2.432 3.904v1.344c-4.096 0-6.032 1.936-6.032 5.952Z" fill="#1F1E1E"/>
    <path transform="rotate(180 160 92)" fill="url(#a)" d="M160 92h160v1H160z"/>
    <path transform="rotate(180 160 1)" fill="url(#b)" d="M160 1h160v1H160z"/>
    
</g></symbol><symbol id="home"><g fill="none">
    <path fill="#1F1E1E" d="M0 0h110v110H0z"/>
    <path d="m63 51-6-5.26a3 3 0 0 0-4 0L47 51a3 3 0 0 0-1 2.26V62a3 3 0 0 0 3 3h12a3 3 0 0 0 3-3v-8.75A2.999 2.999 0 0 0 63 51Zm-6 12h-4v-5a1 1 0 0 1 1-1h2a1 1 0 0 1 1 1v5Zm5-1a1 1 0 0 1-1 1h-2v-5a3 3 0 0 0-3-3h-2a3 3 0 0 0-3 3v5h-2a1 1 0 0 1-1-1v-8.75a1 1 0 0 1 .34-.75l6-5.25a1 1 0 0 1 1.32 0l6 5.25a1 1 0 0 1 .34.75V62Z" fill="#BC3324"/>
    <path d="M62 62a1 1 0 0 1-1 1h-2v-5a3 3 0 0 0-3-3h-2a3 3 0 0 0-3 3v5h-2a1 1 0 0 1-1-1v-8.75a1 1 0 0 1 .34-.75l6-5.25a1 1 0 0 1 1.32 0l6 5.25a1 1 0 0 1 .34.75V62Z" fill="#BC3324"/>
</g></symbol><symbol id="internet"><g fill="none">
    <path fill-rule="evenodd" clip-rule="evenodd" d="M29 58c16.016 0 29-12.984 29-29S45.016 0 29 0 0 12.984 0 29s12.984 29 29 29Zm-3.535-32.535a5 5 0 1 1 7.07 7.07 5 5 0 0 1-7.07-7.07Zm1.238 5.83a3.248 3.248 0 1 0 4.594-4.593 3.248 3.248 0 0 0-4.594 4.594ZM34 25a1 1 0 1 0 0-2 1 1 0 0 0 0 2Zm3.317-4.323a5.106 5.106 0 0 1 1.153 1.767c.297.787.455 1.618.468 2.459.062 1.06.062 1.405.062 4.114 0 2.709-.014 3.047-.062 4.114a7.296 7.296 0 0 1-.466 2.424 5.115 5.115 0 0 1-2.924 2.92 7.355 7.355 0 0 1-2.428.464C32.06 39 31.712 39 29 39s-3.05-.014-4.12-.061a7.321 7.321 0 0 1-2.427-.499 5.12 5.12 0 0 1-2.925-2.919 7.307 7.307 0 0 1-.466-2.425C19 32.035 19 31.69 19 28.982c0-2.709.014-3.047.062-4.114a7.293 7.293 0 0 1 .465-2.424 5.1 5.1 0 0 1 2.925-2.918 7.287 7.287 0 0 1 2.425-.466c1.061-.06 1.409-.06 4.12-.06 2.713 0 3.052.013 4.121.06.83.017 1.65.174 2.428.466a5.116 5.116 0 0 1 1.77 1.15Zm-.545 14.209c.221-.6.338-1.233.346-1.872v.001h.012c.047-1.06.047-1.35.047-4.052 0-2.702-.012-2.998-.06-4.053a5.624 5.624 0 0 0-.345-1.85 3.316 3.316 0 0 0-1.901-1.899 5.516 5.516 0 0 0-1.855-.345c-1.074-.06-1.352-.06-4.058-.06-2.707 0-3.003.013-4.06.06a5.571 5.571 0 0 0-1.853.345 3.314 3.314 0 0 0-1.91 1.899 5.579 5.579 0 0 0-.345 1.87c-.058 1.075-.058 1.351-.058 4.053s.01 2.999.058 4.052c.01.632.127 1.258.346 1.851a3.309 3.309 0 0 0 1.909 1.897c.593.22 1.22.337 1.853.345 1.076.061 1.352.061 4.06.061 2.705 0 3.003-.012 4.058-.06a5.544 5.544 0 0 0 1.855-.346 3.32 3.32 0 0 0 1.901-1.897ZM160 29c0 16.016-12.984 29-29 29s-29-12.984-29-29 12.984-29 29-29 29 12.984 29 29Zm-35.289-10A3.726 3.726 0 0 0 121 22.71v12.58a3.727 3.727 0 0 0 3.711 3.71h12.578A3.726 3.726 0 0 0 141 35.29V22.71a3.727 3.727 0 0 0-3.711-3.71h-12.578Zm12.578 1.818c1.055 0 1.893.838 1.893 1.893v12.578a1.881 1.881 0 0 1-1.893 1.893h-12.578a1.878 1.878 0 0 1-1.752-1.167 1.884 1.884 0 0 1-.141-.726V22.711c0-1.055.838-1.893 1.893-1.893h12.578ZM136.327 26c.398 0 .481.172.398.406h-.001c-.166.644-1.766 2.541-1.766 2.541-.139.188-.195.281 0 .492.069.08.215.201.382.34.173.142.367.302.522.456.564.535.989.985 1.108 1.295.108.312-.08.47-.455.47h-1.313c-.352 0-.529-.166-.911-.524a14.711 14.711 0 0 0-.626-.562c-.779-.632-1.113-.714-1.308-.714-.264 0-.343.063-.343.379v.991c0 .272-.103.43-.938.43-1.391 0-2.919-.711-4.004-2.022-1.627-1.92-2.072-3.373-2.072-3.665 0-.164.075-.313.45-.313h1.313c.336 0 .462.123.586.43.643 1.574 1.725 2.95 2.17 2.95.167 0 .244-.064.244-.421V27.33a1.138 1.138 0 0 0-.365-.812c-.088-.091-.157-.163-.157-.265 0-.124.126-.254.334-.254h2.064c.278 0 .37.125.37.406v2.19c0 .234.126.316.209.316.167 0 .306-.082.612-.34.946-.89 1.613-2.26 1.613-2.26.084-.163.238-.312.572-.312h1.312Z" fill="#1F1E1E"/>
</g></symbol><symbol id="location"><g fill="none">
    <path fill="#1F1E1E" d="M0 0h110v110H0z"/>
    <circle cx="55" cy="55" r="9" fill="#BC3324"/>
</g></symbol><symbol id="logo" viewBox="0 0 202 147"><g fill="none">
    <path fill="#1F1E1E" d="M0 0h147v147H0z"/>
    <path d="M39.965 72.439H26.633V50.032h-.032v-.033h-4.686V73h18.05v-.561ZM43.932 73h18.117v-.561H48.618V61.285h10.494v-.594H48.618V50.56h13.43v-.561H43.933V73ZM70.7 73V50.56c2.87 0 11.714 1.089 12.374 13.893V73h4.686V49.999h-4.686v10.329C81.655 54.19 77.167 49.999 70.7 49.999h-4.686V73H70.7ZM97.39 73V50.56c2.87 0 11.714 1.089 12.374 13.893V73h4.686V49.999h-4.686v10.329c-1.419-6.138-5.907-10.329-12.375-10.329h-4.686V73h4.686ZM119.393 73h4.686V49.999h-4.686V73Z" fill="#fff"/>
    <path fill="#BC3324" d="M81 92h121v42H81z"/>
    <path d="M108.922 124h.54l2.94-8.55h8.55l3.33 8.55h4.47l-8.1-20.91h-4.53l-7.2 20.91Zm7.5-20.25 4.35 11.19h-8.19l3.84-11.19ZM132.644 103.09V124h4.26v-7.23h5.07l4.89 7.2h4.86l-5.16-7.65c3-.78 5.28-2.64 5.28-6.81 0-5.22-3.81-6.87-8.25-6.87-4.68 0-6.03 3.51-6.69 7.41v-6.96h-4.26Zm5.43 4.38c.81-2.94 2.91-4.14 4.77-4.29 4.47-.42 4.65 2.43 4.65 6.33 0 6.33-3.36 6.75-6.24 6.75h-4.35s-.12-4.14 1.17-8.79ZM162.084 103.6l.03 20.4h4.26v-20.4h8.61v-.51h-21.51v.51h8.61Z" fill="#fff"/>
</g></symbol><symbol id="Rectangle"><g fill="none">
    <path fill="#BC3324" d="M4 198H0V0h4z"/>
</g></symbol><symbol id="RectangleBlack"><g fill="none">
    <path fill="url(#a)" d="M0 0h618v2H0z"/>
    <path fill="url(#b)" d="M716 0h618v2H716z"/>
    
</g></symbol><symbol id="star"><g fill="none">
    <path fill="#1F1E1E" d="M0 0h110v110H0z"/>
    <path d="M64.663 51.772a1 1 0 0 1 .33.462 1 1 0 0 1-.32 1.02l-4.13 4 1 5.68a1 1 0 0 1-.99 1.19.93.93 0 0 1-.46-.12l-5.1-2.68-5.12 2.67a1 1 0 0 1-1.45-1.07l1-5.68-4.13-4a1 1 0 0 1-.25-1 1 1 0 0 1 .81-.68l5.69-.84 2.55-5.16a1 1 0 0 1 1.8 0l2.55 5.17 5.69.83a1 1 0 0 1 .53.208Z" fill="#BC3324"/>
</g></symbol><symbol id="tagree"><g fill="none">
    <path d="M6.301 12.695H4.107a3.15 3.15 0 0 1-1.276-.262 3.309 3.309 0 0 1-1.037-.704 3.6 3.6 0 0 1-.698-1.066 3.227 3.227 0 0 1-.26-1.288V.604L3.23 0v3.843h1.396l.598 2.414H3.23v3.118c0 .255.086.47.26.644a.84.84 0 0 0 .617.261h1.596l.598 2.415ZM16.7 2.615v10.08h-2.393v-5.03c0-.805-.28-1.489-.838-2.052a2.757 2.757 0 0 0-2.034-.845 2.91 2.91 0 0 0-1.117.221 2.862 2.862 0 0 0-.917.624 2.806 2.806 0 0 0-.837 2.052c0 .791.279 1.469.837 2.032.266.282.572.496.918.644.358.134.73.201 1.116.201.4 0 .758-.067 1.077-.201l.858 2.152c-.612.309-1.323.463-2.134.463a5.1 5.1 0 0 1-2.034-.402 5.065 5.065 0 0 1-1.596-1.147 5.253 5.253 0 0 1-1.057-1.69 5.568 5.568 0 0 1-.378-2.052c0-.738.126-1.428.378-2.072a5.252 5.252 0 0 1 1.057-1.69 4.807 4.807 0 0 1 1.596-1.127 4.892 4.892 0 0 1 2.034-.422c.651 0 1.23.1 1.735.302.505.2.95.456 1.336.764v-.805H16.7ZM28.326 11.689c0 .724-.14 1.408-.419 2.052a5.188 5.188 0 0 1-1.116 1.69 5.41 5.41 0 0 1-1.675 1.147 5.03 5.03 0 0 1-2.054.422 5.053 5.053 0 0 1-1.696-.282 5.279 5.279 0 0 1-1.475-.804l1.735-1.73c.425.268.904.402 1.436.402.81 0 1.488-.289 2.034-.865.558-.564.837-1.24.837-2.032V7.645c0-.778-.279-1.462-.837-2.052a2.757 2.757 0 0 0-2.034-.845c-.771 0-1.45.282-2.035.845-.558.59-.837 1.274-.837 2.052 0 .805.28 1.489.837 2.052.585.563 1.264.845 2.035.845.398 0 .757-.067 1.076-.201l.898 2.253a5.12 5.12 0 0 1-1.935.362h-.04a5.194 5.194 0 0 1-2.034-.402 5.41 5.41 0 0 1-2.811-2.837 5.151 5.151 0 0 1-.42-2.072 5.9 5.9 0 0 1 .36-2.072c.24-.644.572-1.207.997-1.69a4.65 4.65 0 0 1 1.555-1.127 4.71 4.71 0 0 1 1.995-.422c.69 0 1.303.107 1.834.322.532.2.997.456 1.396.764v-.784h2.393v9.053ZM31.92 3.4a5.173 5.173 0 0 1 1.257-.764 4.132 4.132 0 0 1 1.615-.302v2.414c-.797 0-1.476.282-2.034.845-.558.59-.837 1.274-.837 2.052v5.05h-2.393V2.615h2.393V3.4ZM42.85 8.872h-5.224c.133.309.325.584.578.825.28.282.592.496.937.644.346.134.712.201 1.097.201.545 0 1.03-.127 1.456-.382l2.493 1.006a5.143 5.143 0 0 1-1.735 1.327 5.28 5.28 0 0 1-2.214.463 5.245 5.245 0 0 1-2.054-.402 5.41 5.41 0 0 1-2.812-2.837 5.322 5.322 0 0 1-.399-2.052c0-.738.133-1.428.4-2.072a5.462 5.462 0 0 1 1.136-1.69 5.136 5.136 0 0 1 1.675-1.127 5.03 5.03 0 0 1 2.054-.422c.731 0 1.416.14 2.054.422a5.136 5.136 0 0 1 1.675 1.127c.479.483.851 1.046 1.117 1.69.28.644.419 1.334.419 2.072 0 .43-.047.832-.14 1.207H42.85Zm-2.612-4.104c-.771 0-1.449.282-2.034.845a2.73 2.73 0 0 0-.578.845h5.224a2.732 2.732 0 0 0-.578-.845 2.757 2.757 0 0 0-2.034-.845ZM54.185 8.872H48.96c.133.309.326.584.578.825.28.282.592.496.937.644.346.134.712.201 1.097.201.545 0 1.03-.127 1.456-.382l2.493 1.006a5.143 5.143 0 0 1-1.735 1.327 5.281 5.281 0 0 1-2.214.463 5.245 5.245 0 0 1-2.054-.402 5.41 5.41 0 0 1-2.812-2.837 5.322 5.322 0 0 1-.398-2.052c0-.738.133-1.428.398-2.072a5.464 5.464 0 0 1 1.137-1.69 5.136 5.136 0 0 1 1.675-1.127 5.03 5.03 0 0 1 2.054-.422c.731 0 1.416.14 2.054.422a5.136 5.136 0 0 1 1.675 1.127c.479.483.851 1.046 1.117 1.69.28.644.419 1.334.419 2.072 0 .43-.047.832-.14 1.207h-2.512Zm-2.613-4.104c-.77 0-1.449.282-2.034.845a2.73 2.73 0 0 0-.578.845h5.225a2.73 2.73 0 0 0-.579-.845 2.757 2.757 0 0 0-2.034-.845Z" fill="#1F1E1E"/>
</g></symbol><symbol id="user"><g fill="none">
    <path d="M13.3 12.22A4.92 4.92 0 0 0 15 8.5a5 5 0 0 0-10 0 4.92 4.92 0 0 0 1.7 3.72A8 8 0 0 0 2 19.5a1 1 0 1 0 2 0 6 6 0 1 1 12 0 1 1 0 0 0 2 0 8 8 0 0 0-4.7-7.28ZM10 11.5a3 3 0 1 1 0-6 3 3 0 0 1 0 6Zm11.71-2.37a1 1 0 0 0-1.42 0l-2 2-.62-.63a1.002 1.002 0 0 0-1.71.705 1 1 0 0 0 .29.705l1.34 1.34a1 1 0 0 0 1.41 0l2.67-2.67a1 1 0 0 0 .04-1.45Z" fill="#1F1E1E"/>
</g></symbol></svg>